<mxfile host="app.diagrams.net" modified="2022-10-13T08:32:27.553Z" agent="5.0 (Windows)" etag="-8mxNo4CtTl4LrUFZAic" version="20.4.0" type="github">
  <diagram id="TGMz6NQk-yzmVpitz9HS" name="Page-1">
    <mxGraphModel dx="1211" dy="1096" grid="1" gridSize="10" guides="1" tooltips="1" connect="1" arrows="1" fold="1" page="1" pageScale="1" pageWidth="850" pageHeight="1100" math="0" shadow="0">
      <root>
        <mxCell id="0" />
        <mxCell id="1" parent="0" />
        <mxCell id="jEVbkxa02skcdhSfai87-1" value="Backend" style="rounded=1;whiteSpace=wrap;html=1;" vertex="1" parent="1">
          <mxGeometry x="660" y="430" width="120" height="60" as="geometry" />
        </mxCell>
        <mxCell id="jEVbkxa02skcdhSfai87-4" style="edgeStyle=orthogonalEdgeStyle;rounded=0;orthogonalLoop=1;jettySize=auto;html=1;" edge="1" parent="1" source="jEVbkxa02skcdhSfai87-3" target="jEVbkxa02skcdhSfai87-1">
          <mxGeometry relative="1" as="geometry" />
        </mxCell>
        <mxCell id="jEVbkxa02skcdhSfai87-8" value="&lt;div&gt;pageNum&lt;/div&gt;" style="edgeLabel;html=1;align=center;verticalAlign=middle;resizable=0;points=[];" vertex="1" connectable="0" parent="jEVbkxa02skcdhSfai87-4">
          <mxGeometry x="-0.2667" y="2" relative="1" as="geometry">
            <mxPoint as="offset" />
          </mxGeometry>
        </mxCell>
        <mxCell id="jEVbkxa02skcdhSfai87-3" value="MADAPI System Layer" style="rounded=1;whiteSpace=wrap;html=1;" vertex="1" parent="1">
          <mxGeometry x="530" y="250" width="120" height="60" as="geometry" />
        </mxCell>
        <mxCell id="jEVbkxa02skcdhSfai87-6" style="edgeStyle=orthogonalEdgeStyle;rounded=0;orthogonalLoop=1;jettySize=auto;html=1;entryX=0;entryY=0.5;entryDx=0;entryDy=0;" edge="1" parent="1" source="jEVbkxa02skcdhSfai87-5" target="jEVbkxa02skcdhSfai87-3">
          <mxGeometry relative="1" as="geometry" />
        </mxCell>
        <mxCell id="jEVbkxa02skcdhSfai87-7" value="pageNumber" style="edgeLabel;html=1;align=center;verticalAlign=middle;resizable=0;points=[];" vertex="1" connectable="0" parent="jEVbkxa02skcdhSfai87-6">
          <mxGeometry x="-0.1867" y="1" relative="1" as="geometry">
            <mxPoint as="offset" />
          </mxGeometry>
        </mxCell>
        <mxCell id="jEVbkxa02skcdhSfai87-10" style="edgeStyle=orthogonalEdgeStyle;rounded=0;orthogonalLoop=1;jettySize=auto;html=1;entryX=0;entryY=0.5;entryDx=0;entryDy=0;" edge="1" parent="1" target="jEVbkxa02skcdhSfai87-5">
          <mxGeometry relative="1" as="geometry">
            <mxPoint x="10" y="280" as="sourcePoint" />
          </mxGeometry>
        </mxCell>
        <mxCell id="jEVbkxa02skcdhSfai87-11" value="PageNumber??&lt;br&gt;PageNum ???" style="edgeLabel;html=1;align=center;verticalAlign=middle;resizable=0;points=[];" vertex="1" connectable="0" parent="jEVbkxa02skcdhSfai87-10">
          <mxGeometry x="-0.3167" y="-3" relative="1" as="geometry">
            <mxPoint x="41" as="offset" />
          </mxGeometry>
        </mxCell>
        <mxCell id="jEVbkxa02skcdhSfai87-5" value="MADAPI System Aggregator" style="rounded=1;whiteSpace=wrap;html=1;" vertex="1" parent="1">
          <mxGeometry x="270" y="250" width="120" height="60" as="geometry" />
        </mxCell>
      </root>
    </mxGraphModel>
  </diagram>
</mxfile>
